:FULLY-SPECIFIED
:FORCE-ALL-JOINTS-BE-3DOF
:DEGREES
612
root -4.32505 15.7388 -40.4953 355.776 -73.3389 369.85
lfemur -6.17749 12.4938 -15.3009
ltibia 41.8501 0 0
lfoot -21.0569 28.0818 0
ltoes -23.4451 0 0
rfemur -47.0305 -30.4255 16.6939
rtibia 80.4213 0 0
rfoot -11.0212 -13.7065 0
rtoes 1.96574 0 0
lowerback 12.2409 5.03997 -6.42503
upperback -1.82414 5.6497 -0.794549
thorax -9.39681 3.02398 1.58533
lowerneck 2.79591 -11.0754 -11.8943
upperneck -2.01781 -15.09 11.5563
head 0.743653 -7.61806 5.12772
lclavicle -3.6036e-14 8.83816e-15 0
lhumerus -71.7129 -24.9606 105.964
lradius 102.097 0 0
lwrist 56.1983 0 0
lhand 10.9133 57.9228 0
lfingers 7.12502 0 0
lthumb 35.992 84.2412 0
rclavicle -3.6036e-14 8.83816e-15 0
rhumerus 26.7811 36.4119 -41.6199
rradius 118.544 0 0
rwrist -27.9134 0 0
rhand -6.12881 -28.9253 0
rfingers 7.12502 0 0
rthumb 19.7032 -57.8509 0
613
root -4.3217 15.7301 -40.4658 355.78 -73.3941 369.902
lfemur -6.16239 12.5099 -15.3097
ltibia 41.8155 0 0
lfoot -21.0617 28.1132 0
ltoes -23.4826 0 0
rfemur -46.8715 -30.2739 16.5737
rtibia 79.8726 0 0
rfoot -11.016 -13.7345 0
rtoes 1.72002 0 0
lowerback 12.1962 5.0318 -6.41956
upperback -1.84012 5.64287 -0.796624
thorax -9.38695 3.02075 1.58473
lowerneck 2.75417 -11.0638 -11.8843
upperneck -2.01961 -15.0705 11.5451
head 0.745884 -7.60684 5.12199
lclavicle -3.44592e-14 8.99579e-15 0
lhumerus -71.7005 -24.9022 105.955
lradius 102.102 0 0
lwrist 56.1896 0 0
lhand 10.8836 57.9887 0
lfingers 7.12502 0 0
lthumb 35.9639 84.3139 0
rclavicle -3.44592e-14 8.99579e-15 0
rhumerus 26.627 36.234 -41.8382
rradius 117.555 0 0
rwrist -27.9002 0 0
rhand -6.39901 -29.1068 0
rfingers 7.12502 0 0
rthumb 19.4417 -58.0333 0
614
root -4.31834 15.7214 -40.4362 355.811 -73.494 369.955
lfemur -6.16861 12.5383 -15.3368
ltibia 41.7979 0 0
lfoot -21.0777 28.1786 0
ltoes -23.5272 0 0
rfemur -46.624 -30.1341 16.4728
rtibia 79.2331 0 0
rfoot -11.0838 -13.8471 0
rtoes 1.35773 0 0
lowerback 12.1195 5.02285 -6.4165
upperback -1.86999 5.63652 -0.802611
thorax -9.37369 3.01814 1.58312
lowerneck 2.69006 -11.0438 -11.8695
upperneck -2.00833 -15.0383 11.5332
head 0.753717 -7.58871 5.11434
lclavicle -3.20199e-14 9.21864e-15 0
lhumerus -71.691 -24.8315 105.947
lradius 102.105 0 0
lwrist 56.1679 0 0
lhand 10.8451 58.0619 0
lfingers 7.12502 0 0
lthumb 35.9274 84.3958 0
rclavicle -3.20199e-14 9.21864e-15 0
rhumerus 26.4698 35.8499 -42.1347
rradius 116.236 0 0
rwrist -27.928 0 0
rhand -6.863 -29.3625 0
rfingers 7.12502 0 0
rthumb 18.9933 -58.2983 0
615
root -4.31498 15.7127 -40.4067 355.886 -73.6591 369.998
lfemur -6.21323 12.5847 -15.3931
ltibia 41.8149 0 0
lfoot -21.1119 28.2954 0
ltoes -23.577 0 0
rfemur -46.2562 -30.0408 16.4252
rtibia 78.5383 0 0
rfoot -11.2749 -14.0964 0
rtoes 0.843367 0 0
lowerback 11.9971 5.01402 -6.41844
upperback -1.92035 5.63218 -0.814788
thorax -9.35649 3.01712 1.57992
lowerneck 2.59581 -11.0118 -11.8485
upperneck -1.97479 -14.9886 11.5222
head 0.77055 -7.56094 5.10451
lclavicle -2.84126e-14 9.52303e-15 0
lhumerus -71.6883 -24.7503 105.942
lradius 102.105 0 0
lwrist 56.1259 0 0
lhand 10.797 58.1354 0
lfingers 7.12502 0 0
lthumb 35.8817 84.4803 0
rclavicle -2.84126e-14 9.52303e-15 0
rhumerus 26.3343 35.1517 -42.5236
rradius 114.541 0 0
rwrist -28.0269 0 0
rhand -7.60421 -29.7106 0
rfingers 7.12502 0 0
rthumb 18.2777 -58.6696 0
616
root -4.31163 15.704 -40.3772 356.024 -73.9098 370.022
lfemur -6.31334 12.6543 -15.4893
ltibia 41.884 0 0
lfoot -21.1709 28.4808 0
ltoes -23.6302 0 0
rfemur -45.7364 -30.0286 16.4652
rtibia 77.8238 0 0
rfoot -11.6395 -14.5348 0
rtoes 0.141429 0 0
lowerback 11.8152 5.00624 -6.42798
upperback -1.9978 5.63138 -0.835433
thorax -9.33478 3.01867 1.57454
lowerneck 2.46365 -10.9643 -11.8199
upperneck -1.90984 -14.9162 11.5135
head 0.799778 -7.52084 5.09219
lclavicle -2.3332e-14 9.92525e-15 0
lhumerus -71.6965 -24.6606 105.943
lradius 102.1 0 0
lwrist 56.0562 0 0
lhand 10.7384 58.2025 0
lfingers 7.12502 0 0
lthumb 35.8263 84.5607 0
rclavicle -2.3332e-14 9.92525e-15 0
rhumerus 26.2458 34.0311 -43.0193
rradius 112.421 0 0
rwrist -28.227 0 0
rhand -8.70605 -30.169 0
rfingers 7.12502 0 0
rthumb 17.2144 -59.1709 0
617
root -4.30827 15.6953 -40.3476 356.243 -74.2669 370.018
lfemur -6.48601 12.7529 -15.6363
ltibia 42.0229 0 0
lfoot -21.2616 28.7525 0
ltoes -23.685 0 0
rfemur -45.0328 -30.1323 16.6271
rtibia 77.1249 0 0
rfoot -12.2279 -15.2143 0
rtoes -0.783582 0 0
lowerback 11.5601 5.00041 -6.4477
upperback -2.1089 5.63565 -0.866828
thorax -9.308 3.02378 1.56641
lowerneck 2.28582 -10.8977 -11.7821
upperneck -1.8043 -14.8161 11.5087
head 0.844798 -7.46571 5.07713
lclavicle -1.64728e-14 1.04416e-14 0
lhumerus -71.7197 -24.5644 105.951
lradius 102.089 0 0
lwrist 55.9517 0 0
lhand 10.6688 58.2564 0
lfingers 7.12502 0 0
lthumb 35.7602 84.6305 0
rclavicle -1.64728e-14 1.04416e-14 0
rhumerus 26.2291 32.3803 -43.6359
rradius 109.829 0 0
rwrist -28.5583 0 0
rhand -10.2519 -30.7561 0
rfingers 7.12502 0 0
rthumb 15.7232 -59.8257 0
618
root -4.30492 15.6866 -40.3181 356.559 -74.7506 369.977
lfemur -6.74835 12.8858 -15.845
ltibia 42.2493 0 0
lfoot -21.3909 29.1277 0
ltoes -23.7396 0 0
rfemur -44.1136 -30.3867 16.9449
rtibia 76.4772 0 0
rfoot -13.0905 -16.1872 0
rtoes -1.96716 0 0
lowerback 11.2181 4.99746 -6.48022
upperback -2.26026 5.64651 -0.91125
thorax -9.27561 3.03343 1.55495
lowerneck 2.05455 -10.8082 -11.7337
upperneck -1.64901 -14.6832 11.5093
head 0.909007 -7.39283 5.05902
lclavicle -7.52976e-15 1.10885e-14 0
lhumerus -71.7619 -24.4634 105.969
lradius 102.07 0 0
lwrist 55.805 0 0
lhand 10.5872 58.2902 0
lfingers 7.12502 0 0
lthumb 35.683 84.683 0
rclavicle -7.52976e-15 1.10885e-14 0
rhumerus 26.3094 30.091 -44.3879
rradius 106.718 0 0
rwrist -29.0508 0 0
rhand -12.3253 -31.49 0
rfingers 7.12502 0 0
rthumb 13.7238 -60.6579 0
